<svg xmlns="http://www.w3.org/2000/svg" width="763.05693" height="458" data-name="Layer 1">
	<path fill="#f2f2f2"
		d="M48 96a48 48 0 1 1 48-48 48.05437 48.05437 0 0 1-48 48Zm0-94a46 46 0 1 0 46 46A46.05223 46.05223 0 0 0 48 2ZM374 68a24 24 0 1 1 24-24 24.02734 24.02734 0 0 1-24 24Zm0-46a22 22 0 1 0 22 22 22.0249 22.0249 0 0 0-22-22ZM543 185a27 27 0 1 1 27-27 27.03062 27.03062 0 0 1-27 27Zm0-52a25 25 0 1 0 25 25 25.02817 25.02817 0 0 0-25-25Z" />
	<path fill="#ccc" d="M762.05694 458h-225a1 1 0 0 1 0-2h225a1 1 0 0 1 0 2Z" />
	<circle cx="640.91705" cy="128.68583" r="24.56103" fill="#ffb8b8" />
	<path fill="#ffb8b8" d="m643.465 420.343-11.608 3.942-20.733-42.899 17.133-5.819 15.208 44.776z" />
	<path fill="#2f2e41"
		d="m622.43869083 423.78506567 22.38771963-7.60411721 4.78777392 14.0959611-36.48366178 12.3918847a14.88686 14.88686 0 0 1 9.30816823-18.8837286Z" />
	<path fill="#ffb8b8" d="m669.694 444.575-12.244.615-8.201-46.935 18.072-.909 2.373 47.229z" />
	<path fill="#2f2e41"
		d="m648.5280439 442.13114438 23.61406645-1.18678316.74723328 14.86810482-38.48216128 1.93401593a14.88686 14.88686 0 0 1 14.12086155-15.6153376Z" />
	<path fill="#ffb8b8"
		d="M596.82896 288.63a10.05579 10.05579 0 0 0-.46773-15.41224l11.674-33.77419-17.99152 4.59774-8.32752 31.36769a10.11027 10.11027 0 0 0 15.11277 13.221Z" />
	<path fill="#2f2e41"
		d="M668.54991 430.42383a4.54354 4.54354 0 0 1-.47412-.02539l-16.6206-1.75977a4.47242 4.47242 0 0 1-3.99805-3.97363l-12.84473-114.50977-9.29443 31.335 17.32861 61.583a4.50019 4.50019 0 0 1-3.81787 5.68946l-16.84766 1.93652a4.523 4.523 0 0 1-4.86328-3.31543l-18.40869-69.30274a4.48241 4.48241 0 0 1-.11133-1.748l8.27393-62.19873 61.71387 4.94873 4.4624 146.70312a4.50044 4.50044 0 0 1-4.49805 4.6377Z" />
	<path fill="#5ec269"
		d="M647.2169 289.71875c-20.67578 0-44.08447-7.98877-45.502-8.47949l-.41015-.14209 23.32472-119.68408.4292.01757c9.24365.375 34.46924.56739 34.72315.56934l.45263.00342 9.72266 105.61865 1.73779 15.44873-.21289.17236c-5.94772 4.8086-14.82126 6.47559-24.26511 6.47559Z" />
	<path fill="#2f2e41"
		d="m609.86437 279.37549-14.58936-5.87649 7.436-89.94384a14.85637 14.85637 0 0 1 6.47412-11.10352l7.67724-5.22461a4.86843 4.86843 0 0 1 4.82712-6.23967l2.19876.07074a2.49979 2.49979 0 0 1 3.82715 2.66064l-.48291 9.5293Z" />
	<path fill="#2f2e41"
		d="m602.50255 263.251-19.04858-.80225 6.17065-39.69238 5.11328-37.34864a8.92423 8.92423 0 0 1 11.57764-7.8457 8.917 8.917 0 0 1 6.17431 9.647l-5.17968 40.46729ZM632.66466 280.751l-.1294-.40088c-.08837-.27442-8.67285-27.81153 5.69141-60.67188l7.20313-35.82568 6.15562-22.49493a2.68922 2.68922 0 0 1 1.63131-1.77293 2.47718 2.47718 0 0 1 2.64861.68046 17.19838 17.19838 0 0 1 12.85951 1.28589l8.64469 4.55386a9.81489 9.81489 0 0 1 4.98163 10.923l-11.81543 50.42285 5.74365 47.09717Z" />
	<path fill="#ffb8b8"
		d="M645.24484 261.33769a10.05578 10.05578 0 0 0 11.11782-10.6841l26.7561-19.82058-9.35261-4.4342-28.85136 14.862a10.11028 10.11028 0 0 0 .33005 20.07692Z" />
	<path fill="#2f2e41"
		d="m662.01915 252.46533-9.03662-16.86914 22.28711-14.668-10.876-39.00976a11.79539 11.79539 0 0 1 9.02983-14.73143 11.8273 11.8273 0 0 1 13.5 7.76416l14.6748 43.13526a4.49921 4.49921 0 0 1-1.51172 5.01269ZM642.6552 133.89533c-2.94426.38308-5.1652-2.62934-6.19529-5.414s-1.81495-6.02657-4.37478-7.53078c-3.49727-2.05506-7.97186.41663-11.97116-.2614-4.51644-.7657-7.453-5.55225-7.68312-10.12736s1.59053-8.9754 3.377-13.19361l.62366 5.24227a10.39577 10.39577 0 0 1 4.54288-9.08678l-.80385 7.69223a8.16418 8.16418 0 0 1 9.39248-6.75554l-.1266 4.58332c5.2165-.6203 10.47858-1.24146 15.71053-.76889s10.50043 2.12792 14.4658 5.57356c5.93158 5.15414 8.09792 13.641 7.37063 21.46535s-3.95715 15.17468-7.32339 22.27519c-.847 1.78651-2.01841 3.80245-3.98237 4.03-1.76463.20448-3.3793-1.27064-3.92787-2.96026a10.7299 10.7299 0 0 1 .04764-5.271c.49629-2.63729 1.12192-5.33294.6553-7.97564s-2.36777-5.25419-5.03173-5.57806-5.38987 2.72118-4.10908 5.0794Z" />
	<path fill="#e6e6e6"
		d="m321.30995 403.57717-9.56074-4.02569-6.55863-47.92811h-87.33994l-7.10907 47.7323-8.55359 4.27673a2.0312 2.0312 0 0 0 .90847 3.84791h117.42553a2.03109 2.03109 0 0 0 .78797-3.90314Z" />
	<path fill="#ccc"
		d="M476.51902 358h-429.038a8.50008 8.50008 0 0 1-8.481-8.5V289h446v60.5a8.50016 8.50016 0 0 1-8.481 8.5Z" />
	<path fill="#3f3d56"
		d="M485.44847 317.59375H38.6084V58.72705a10.25845 10.25845 0 0 1 10.247-10.24658h426.34607a10.25855 10.25855 0 0 1 10.247 10.24658Z" />
	<path fill="#fff"
		d="M458.76047 298.80518H65.29639a7.90831 7.90831 0 0 1-7.89966-7.89942V75.16846a7.90873 7.90873 0 0 1 7.89966-7.89991h393.46408a7.90873 7.90873 0 0 1 7.89966 7.89991v215.7373a7.90831 7.90831 0 0 1-7.89966 7.89942Z" />
	<path fill="#ccc" d="M455.05694 407.98031h-381a1 1 0 0 1 0-2h381a1 1 0 0 1 0 2Z" />
	<path fill="#3f3d56" d="M421.7961 272H102.2607a1 1 0 0 1-1-1V117.84668a1 1 0 0 1 2 0V270h318.5354a1 1 0 0 1 0 2Z" />
	<path fill="#5ec269"
		d="M170.53147 261h-29.063a2.97182 2.97182 0 0 1-2.96851-2.96826v-40.06348A2.97182 2.97182 0 0 1 141.46847 215h29.063a2.97181 2.97181 0 0 1 2.9685 2.96826v40.06348A2.97181 2.97181 0 0 1 170.53147 261ZM223.53147 261h-29.063a2.97182 2.97182 0 0 1-2.96851-2.96826v-78.06348A2.97182 2.97182 0 0 1 194.46847 177h29.063a2.97181 2.97181 0 0 1 2.9685 2.96826v78.06348A2.97181 2.97181 0 0 1 223.53147 261ZM276.53147 261h-29.063a2.97182 2.97182 0 0 1-2.96851-2.96826v-40.06348A2.97182 2.97182 0 0 1 247.46847 215h29.063a2.97181 2.97181 0 0 1 2.9685 2.96826v40.06348A2.97181 2.97181 0 0 1 276.53147 261ZM329.53147 261h-29.063a2.90686 2.90686 0 0 1-2.96851-2.83379v-93.33242A2.90686 2.90686 0 0 1 300.46847 162h29.063a2.90685 2.90685 0 0 1 2.9685 2.83379v93.33242A2.90685 2.90685 0 0 1 329.53147 261ZM382.53147 261h-29.063a2.97182 2.97182 0 0 1-2.96851-2.96826V137.96826A2.97182 2.97182 0 0 1 353.46847 135h29.063a2.97181 2.97181 0 0 1 2.9685 2.96826v120.06348A2.97181 2.97181 0 0 1 382.53147 261Z" />
	<circle cx="156" cy="197" r="6" fill="#3f3d56" />
	<circle cx="209" cy="158" r="6" fill="#3f3d56" />
	<circle cx="262" cy="197" r="6" fill="#3f3d56" />
	<circle cx="315" cy="139" r="6" fill="#3f3d56" />
	<circle cx="368" cy="117" r="6" fill="#3f3d56" />
	<path fill="#3f3d56"
		d="M262.126 198.344 209 158.552 156.6 197.8l-1.2-1.6 53.6-40.147 52.874 39.603 52.541-57.498.211-.086 53-21.354.748 1.855-52.789 21.269-53.459 58.502z" />
</svg>