<svg xmlns="http://www.w3.org/2000/svg" data-name="Layer 1" viewBox="0 0 888 544.4"><path fill="#f2f2f2" d="m536 482-32 9 32-20c-1-32-12-65-12-65s-69 20-87 55-4 57 22 71c25 13 52 11 70-23 4-8 6-17 7-27Z"/><path fill="#fff" d="m498 489-1 1c-11 20-22 34-34 41l-1 1v-1l-1-1a102 102 0 0 0 35-42 260 260 0 0 0 21-55l8-28h2l-1 2-7 27v2l-8 23-2 5-1 2-10 23Z"/><path fill="#fff" d="m519 434-2-1a53 53 0 0 1-5-2 51 51 0 0 1-17-15l-2 1a53 53 0 0 0 19 16 54 54 0 0 0 5 2l2 1a53 53 0 0 0 15 3v-2a51 51 0 0 1-15-3ZM509 464h-2l-1-1a51 51 0 0 1-27-39l-2 1a53 53 0 0 0 28 40h1l2 1a53 53 0 0 0 30 5l-1-2a51 51 0 0 1-28-5Z"/><path fill="#fff" d="M498 489a47 47 0 0 1-4-2 52 52 0 0 1-27-56l-2 2a53 53 0 0 0 28 56 40 40 0 0 0 4 1 53 53 0 0 0 39 2v-3a51 51 0 0 1-38 0Z"/><path fill="#f2f2f2" d="m115 485 32 9-32-20c1-32 12-65 12-65s69 20 87 55 4 57-22 71c-25 13-52 11-70-23-4-8-6-17-7-27Z"/><path fill="#fff" d="m153 492 1 1c11 20 22 34 34 41l1 1v-1l1-1a102 102 0 0 1-35-42 260 260 0 0 1-21-55l-8-28h-2l1 2 7 27v2l8 23 2 5 1 2 10 23Z"/><path fill="#fff" d="M117 440v2a53 53 0 0 0 15-3l2-1a54 54 0 0 0 5-2 53 53 0 0 0 19-16l-2-1a51 51 0 0 1-17 15 53 53 0 0 1-5 2l-2 1a51 51 0 0 1-15 3ZM114 472l-1 2a53 53 0 0 0 30-5l2-1h1a53 53 0 0 0 28-40l-2-1a51 51 0 0 1-27 39l-1 1h-2a51 51 0 0 1-28 5Z"/><path fill="#fff" d="M115 492v3a53 53 0 0 0 39-2 46 46 0 0 0 4-1 53 53 0 0 0 28-56l-2-2a52 52 0 0 1-27 56 54 54 0 0 1-4 2 51 51 0 0 1-38 0Z"/><path fill="#f2f2f2" d="m265 509 19 5-19-12c1-18 7-38 7-38s41 12 52 33 2 34-13 42-31 7-42-14l-4-16Z"/><path fill="#fff" d="m288 513 1 1c6 12 13 20 20 25l1-1a60 60 0 0 1-21-25 155 155 0 0 1-13-33l-4-17h-1v1l4 17 1 1 4 13 2 4v1l6 13Z"/><path fill="#fff" d="m267 482-1 1a31 31 0 0 0 10-1l1-1a32 32 0 0 0 3-1 32 32 0 0 0 11-9l-1-1a30 30 0 0 1-11 9 31 31 0 0 1-3 1l-1 1a30 30 0 0 1-8 1ZM264 501v1a32 32 0 0 0 18-2l1-1a32 32 0 0 0 17-24h-1a31 31 0 0 1-16 23l-1 1a30 30 0 0 1-18 2Z"/><path fill="#fff" d="M265 514v1a32 32 0 0 0 24-1 28 28 0 0 0 2-1 32 32 0 0 0 16-33l-1-1a31 31 0 0 1-16 33 32 32 0 0 1-2 1 31 31 0 0 1-23 1ZM646 336c-15-2-32-2-51 0a4 4 0 0 1-4-4v-17a4 4 0 0 1 4-4 200 200 0 0 1 51 0 4 4 0 0 1 4 4v17a4 4 0 0 1-4 4Z"/><path fill="#afb4bd" d="M646 336c-15-2-32-2-51 0a4 4 0 0 1-4-4v-17a4 4 0 0 1 4-4 200 200 0 0 1 51 0 4 4 0 0 1 4 4v17a4 4 0 0 1-4 4Zm-26-26a184 184 0 0 0-25 2 3 3 0 0 0-3 3v17a3 3 0 0 0 3 3c19-2 36-2 51 0a3 3 0 0 0 3-3v-17a3 3 0 0 0-3-3 216 216 0 0 0-26-2Z"/><circle cx="620.4" cy="322.7" r="7" fill="#afb4bd"/><path fill="#afb4bd" d="M602 319h-6a2 2 0 0 1-1-1v-2a2 2 0 0 1 1-2h6a2 2 0 0 1 2 2v2a2 2 0 0 1-2 1ZM644 333h-6a2 2 0 0 1-1-1v-2a2 2 0 0 1 1-2h6a2 2 0 0 1 2 2v2a2 2 0 0 1-2 1Z"/><path fill="#fff" d="M638 329c-13-8-29-15-48-20a4 4 0 0 1-2-5l7-16a4 4 0 0 1 5-2 200 200 0 0 1 47 20 4 4 0 0 1 2 5l-6 16a4 4 0 0 1-5 2Z"/><path fill="#afb4bd" d="M638 329c-13-8-29-15-48-20a4 4 0 0 1-2-5l7-16a4 4 0 0 1 5-2 200 200 0 0 1 47 20 4 4 0 0 1 2 5l-6 16a4 4 0 0 1-5 2Zm-15-34a184 184 0 0 0-23-8 3 3 0 0 0-4 1l-7 16a3 3 0 0 0 2 4c18 5 34 12 47 20a3 3 0 0 0 4-2l6-16a3 3 0 0 0-1-3 216 216 0 0 0-24-12Z"/><circle cx="619.1" cy="306.4" r="7" fill="#afb4bd"/><path fill="#afb4bd" d="m604 296-6-2a2 2 0 0 1 0-2v-2a2 2 0 0 1 2-1l6 2a2 2 0 0 1 1 2l-1 2a2 2 0 0 1-2 1ZM637 325l-5-2a2 2 0 0 1-1-2l1-2a2 2 0 0 1 2-1l5 3a2 2 0 0 1 1 2l-1 1a2 2 0 0 1-2 1Z"/><path fill="#ffb6b6" d="M651 319a10 10 0 0 0 3-15l18-31-19 1-14 29a10 10 0 0 0 12 16ZM788 531h-12l-6-48h18v48z"/><path fill="#2f2e41" d="M791 543h-40v-1a15 15 0 0 1 16-15h24Z"/><path fill="#ffb6b6" d="M704 531h-12l-6-48h18v48z"/><path fill="#2f2e41" d="M707 543h-40v-1a15 15 0 0 1 16-15h24ZM672 274s-3 48 4 72 7 171 7 171h23l19-199 44 200 22-2-12-235Z"/><path fill="#e4e4e4" d="m770 112-17-12-29 6-7 18-14 7a30 30 0 0 0-16 23l-19 131 111-4 13-155a12 12 0 0 0-11-13Z"/><path fill="#e4e4e4" d="m696 141-10 14-45 137 21 8 34-64v-95z"/><circle cx="733" cy="57.8" r="34" fill="#2f2e41"/><circle cx="733.4" cy="68.5" r="24.8" fill="#ffb9b9"/><path fill="#2f2e41" d="M752 65c-16-5-21-9-38 0l-7-25h52Z"/><circle cx="730.2" cy="23.9" r="19.3" fill="#2f2e41"/><path fill="#2f2e41" d="M707 19a19 19 0 0 1 19-19h-1a19 19 0 1 0 0 39h1a19 19 0 0 1-19-20Z"/><path d="m778 149-7 69-24 48 31-117z" opacity=".1"/><path fill="#f0f0f0" d="M40 362h6v5h-6zM613 367h-12v-5h12Zm-24 0h-11v-5h11Zm-23 0h-12v-5h12Zm-24 0h-12v-5h12Zm-24 0h-11v-5h11Zm-23 0h-12v-5h12Zm-24 0h-12v-5h12Zm-23 0h-12v-5h12Zm-24 0h-12v-5h12Zm-24 0h-12v-5h12Zm-23 0h-12v-5h12Zm-24 0h-12v-5h12Zm-24 0h-12v-5h12Zm-23 0h-12v-5h12Zm-24 0h-12v-5h12Zm-24 0h-11v-5h11Zm-23 0h-12v-5h12Zm-24 0h-12v-5h12Zm-24 0h-11v-5h11Zm-23 0h-12v-5h12Zm-24 0h-12v-5h12Zm-24 0h-11v-5h11Zm-23 0H81v-5h12Zm-24 0H57v-5h12ZM40 235h6v5h-6zM613 240h-12v-5h12Zm-24 0h-11v-5h11Zm-23 0h-12v-5h12Zm-24 0h-12v-5h12Zm-24 0h-11v-5h11Zm-23 0h-12v-5h12Zm-24 0h-12v-5h12Zm-23 0h-12v-5h12Zm-24 0h-12v-5h12Zm-24 0h-12v-5h12Zm-23 0h-12v-5h12Zm-24 0h-12v-5h12Zm-24 0h-12v-5h12Zm-23 0h-12v-5h12Zm-24 0h-12v-5h12Zm-24 0h-11v-5h11Zm-23 0h-12v-5h12Zm-24 0h-12v-5h12Zm-24 0h-11v-5h11Zm-23 0h-12v-5h12Zm-24 0h-12v-5h12Zm-24 0h-11v-5h11Zm-23 0H81v-5h12Zm-24 0H57v-5h12ZM40 108h6v5h-6zM613 113h-12v-5h12Zm-24 0h-11v-5h11Zm-23 0h-12v-5h12Zm-24 0h-12v-5h12Zm-24 0h-11v-5h11Zm-23 0h-12v-5h12Zm-24 0h-12v-5h12Zm-23 0h-12v-5h12Zm-24 0h-12v-5h12Zm-24 0h-12v-5h12Zm-23 0h-12v-5h12Zm-24 0h-12v-5h12Zm-24 0h-12v-5h12Zm-23 0h-12v-5h12Zm-24 0h-12v-5h12Zm-24 0h-11v-5h11Zm-23 0h-12v-5h12Zm-24 0h-12v-5h12Zm-24 0h-11v-5h11Zm-23 0h-12v-5h12Zm-24 0h-12v-5h12Zm-24 0h-11v-5h11Zm-23 0H81v-5h12Zm-24 0H57v-5h12Z"/><path fill="#3f3d56" d="M186 363h49v180h-49z"/><path fill="#afb4bd" d="M195 363h49v180h-49z"/><path fill="#3f3d56" d="M302 236h49v307h-49z"/><path fill="#afb4bd" d="M311 236h49v307h-49z"/><path fill="#3f3d56" d="M418 109h49v434h-49z"/><path fill="#afb4bd" d="M427 109h49v434h-49z"/><circle cx="40" cy="110.2" r="12" fill="#f0f0f0"/><circle cx="40" cy="237.2" r="12" fill="#f0f0f0"/><circle cx="40" cy="364.2" r="12" fill="#f0f0f0"/><path fill="#3f3d56" d="M0 542h888v2H0z"/><path fill="#fff" d="M749 314c-15-2-32-2-51 0a4 4 0 0 1-4-4v-17a4 4 0 0 1 4-4 200 200 0 0 1 51 0 4 4 0 0 1 4 4v17a4 4 0 0 1-4 4Z"/><path fill="#afb4bd" d="M749 314c-15-2-32-2-51 0a4 4 0 0 1-4-4v-17a4 4 0 0 1 4-4 200 200 0 0 1 51 0 4 4 0 0 1 4 4v17a4 4 0 0 1-4 4Zm-26-26a184 184 0 0 0-25 2 3 3 0 0 0-3 3v17a3 3 0 0 0 3 3c19-2 36-2 51 0a3 3 0 0 0 3-3v-17a3 3 0 0 0-3-3 216 216 0 0 0-26-2Z"/><circle cx="723.4" cy="300.7" r="7" fill="#afb4bd"/><path fill="#afb4bd" d="M705 297h-6a2 2 0 0 1-1-1v-2a2 2 0 0 1 1-2h6a2 2 0 0 1 2 2v2a2 2 0 0 1-2 1ZM747 311h-6a2 2 0 0 1-1-1v-2a2 2 0 0 1 1-2h6a2 2 0 0 1 2 2v2a2 2 0 0 1-2 1Z"/><path fill="#ffb6b6" d="M738 291a10 10 0 0 1 11-11l15-32 10 16-16 28a10 10 0 0 1-20-1Z"/><path fill="#e4e4e4" d="m779 122 7-8s15-3 18 18l-2 93-34 53-21-6 28-63Z"/></svg>