<svg xmlns="http://www.w3.org/2000/svg" data-name="Layer 1" viewBox="0 0 816 548.8"><path fill="#2f2e41" d="m655 72 2-21a28 28 0 1 1 57 7l-3 21a4 4 0 0 1-4 3l-49-6a4 4 0 0 1-3-4Z"/><circle cx="678.1" cy="57.1" r="20.8" fill="#ffb8b8"/><path fill="#2f2e41" d="M651 51a22 22 0 0 1 25-19l4 1a22 22 0 0 1 19 25l-9-1-2-9-1 8h-5l-1-5-1 5-29-4Z"/><path fill="#ffb8b8" d="M577 131a10 10 0 0 0 14 3l19 12 9-10-27-16a10 10 0 0 0-15 11Z"/><path fill="#3f3d56" d="M638 151c-14 0-38-6-39-7h-1l4-19 37 7 21-28 23-3-1 1-35 47c-1 1-4 2-9 2Z"/><path fill="#3f3d56" d="M642 224c-1 0-12-6-19-17-6-11 23-59 25-62v-15l10-28 13-7-11 26Z"/><path fill="#ffb8b8" d="M629 386h-13l-5-48h18v48z"/><path fill="#2f2e41" d="M632 398h-40a16 16 0 0 1 16-16h24Z"/><path fill="#ffb8b8" d="m763 375-11 4-21-44 17-6 15 46z"/><path fill="#2f2e41" d="m770 386-38 12a16 16 0 0 1 10-20l23-8ZM739 367l-36-59-30-64-27 56-10 73-38 1v-1l58-229 45 6-2 30 1 2c10 14 21 29 15 46l17 51 38 85Z"/><path fill="#afb4bd" d="M658 193c-7 0-14-7-10-20h-1l10-41c-8-12 2-22 3-22l5-10 23-14 11 95c-8 8-36 12-41 12Z"/><path fill="#3f3d56" d="M704 215a11 11 0 0 1-3-1 350 350 0 0 1-16-131l13 2c1 0 6-4 11-3a8 8 0 0 1 5 3l4 55 15 66h-1c-1 1-18 9-28 9Z"/><path fill="#ffb8b8" d="M696 193a10 10 0 0 0 9-12l18-12-5-13-25 18a10 10 0 0 0 3 19Z"/><path fill="#3f3d56" d="m717 179-16-12 22-31-17-30 8-22v1l28 51c4 7-24 41-25 43Z"/><path fill="#fff" d="m559 244-294 10a28 28 0 0 1-29-26l-5-143a28 28 0 0 1 27-29l295-10a28 28 0 0 1 28 27l5 143a28 28 0 0 1-27 28Z"/><path fill="#f2f2f2" d="M586 216v1a26 26 0 0 1-25 27l-297 10a26 26 0 0 1-27-25v-1Z"/><path fill="#afb4bd" d="M295 101c-21 6-41-10-45-25h1c18-5 39 7 44 25Z"/><path fill="#3f3d56" d="M505 203c-5 0-9-1-12-4-6-6-6-18-6-28v-8a17 17 0 0 1 16-17l39-1c5 0 9 1 12 4 6 6 6 18 6 28l1 8a17 17 0 0 1-17 17Zm-17-40 1 8c0 10 0 22 5 27 3 3 6 4 11 4l39-2a15 15 0 0 0 15-15v-8c0-10 0-22-6-27-3-3-6-4-10-4l-40 2a15 15 0 0 0-15 15ZM286 103a37 37 0 0 1-20-5c-8-5-15-14-17-22l-1-1 3-1c18-4 39 8 44 26v1a35 35 0 0 1-9 2Zm-36-27c3 8 9 15 17 20a35 35 0 0 0 26 4c-5-17-25-28-42-24ZM266 198a14 14 0 0 1-12-6 17 17 0 0 1-1-17 14 14 0 0 1 13-8l52-1a14 14 0 0 1 13 6 17 17 0 0 1 1 17c-3 5-7 7-13 7l-52 2h-1Zm-1-29a12 12 0 0 0-11 6 16 16 0 0 0 1 16 12 12 0 0 0 11 5l53-1a12 12 0 0 0 11-7 16 16 0 0 0 0-15 12 12 0 0 0-12-6l-52 2h-1Z"/><path fill="#afb4bd" d="m517 165-17 1a4 4 0 0 1 0-8l17-1a4 4 0 0 1 0 8ZM518 179h-17a4 4 0 1 1 0-8l16-1a4 4 0 1 1 1 9ZM518 192l-17 1a4 4 0 1 1 0-9h17a4 4 0 1 1 0 8ZM546 164l-16 1a4 4 0 1 1-1-8l17-1a4 4 0 1 1 0 8ZM547 178h-17a4 4 0 1 1 0-8l16-1a4 4 0 1 1 1 9ZM547 191l-17 1a4 4 0 1 1 0-9h17a4 4 0 1 1 0 8Z"/><path fill="#3f3d56" d="m233 116 349-12v1l-349 12z"/><path fill="#3f3d56" d="m559 244-294 10a28 28 0 0 1-29-26l-5-143a28 28 0 0 1 27-29l295-10a28 28 0 0 1 28 27l5 143a28 28 0 0 1-27 28ZM258 58a26 26 0 0 0-25 27l5 143a26 26 0 0 0 27 25l294-10a26 26 0 0 0 25-27l-5-143a26 26 0 0 0-26-25Z"/><path fill="#a0616a" d="M137 209a10 10 0 0 0-12-9l-14-19-13 5 19 26a10 10 0 0 0 20-3Z"/><path fill="#3f3d56" d="m111 208-40-52 15-48c1-12 9-15 9-15l13 35-9 25 23 40Z"/><path fill="#a0616a" d="M251 47a10 10 0 0 0-9 13l-17 15 6 13 24-22a10 10 0 0 0-4-19Z"/><path fill="#3f3d56" d="m251 73-49 44-48-11c-12-1-16-8-16-8l34-16 26 7 38-26Z"/><path fill="#a0616a" d="M167 386h13l6-51h-19v51z"/><path fill="#2f2e41" d="M205 398h-41v-16h27a14 14 0 0 1 14 14v2Z"/><path fill="#a0616a" d="M114 386h13l7-51h-20v51z"/><path fill="#2f2e41" d="M153 398h-42v-16h27a14 14 0 0 1 15 14v2ZM110 201l1 75 1 99 23-2 12-136 15 136h24l3-137-9-30-70-5z"/><path fill="#3f3d56" d="M156 211c-26 0-50-11-50-11l-2-52c-1-2-13-38-15-49-2-12 28-22 32-23l1-9 34-4 4 12 12 4a6 6 0 0 1 4 8l-7 27 17 92h-4a65 65 0 0 1-26 5Z"/><circle cx="140.1" cy="32.4" r="24.6" fill="#a0616a"/><path fill="#2f2e41" d="M120 56c5 5 14 3 14-4a8 8 0 0 0 0-2c0-3-2-6-1-9a5 5 0 0 1 0-2c4-5 13 2 16-2 3-3 0-8 2-11 2-4 8-2 12-4 5-2 5-9 2-14-4-5-10-8-17-8s-12 1-18 4c-7 2-13 6-17 12-5 7-6 16-3 25 1 5 6 11 10 15Z"/><path fill="#cacaca" d="M815 400H1a1 1 0 0 1 0-2h814a1 1 0 0 1 0 2Z"/><path fill="#ffb8b8" d="M454 537h12l5-45h-17v45z"/><path fill="#2f2e41" d="M451 533h23a15 15 0 0 1 15 15v1h-38Z"/><path fill="#ffb8b8" d="M344 537h12l6-45h-18v45z"/><path fill="#2f2e41" d="M341 533h23a15 15 0 0 1 15 15v1h-38ZM459 306s10 27 8 38 10 91 9 98 1 43 0 48 4 13 1 18l-7 18-18-2-3-15s-9-2-7-10-7-65-7-65l-25-80-34 73s-1 50-5 56 4 21 0 27l-9 16h-21v-12s-13-7 0-28l9-128 8-58Z"/><circle cx="405.8" cy="101.5" r="26.5" fill="#ffb8b8"/><path fill="#2f2e41" d="m428 100-5 14c-3 6-5 12-11 15-6 4-15 2-22-2a34 34 0 0 1 16-62v5l6-5a6 6 0 0 0 9 1c-2 3 0 7 3 9 3 3 12 7 12 12-1 4-6 9-8 13Z"/><path fill="#ffb8b8" d="M333 345a11 11 0 0 1 5-16l-1-26 16-4v36a11 11 0 0 1-20 10Z"/><path fill="#3f3d56" d="M386 144s21-10 40-3 30 15 30 15l-13 66 17 89s-87-7-95 0-8-8-8-8l6-85-12-53Z"/><path fill="#ffb8b8" d="M473 347a11 11 0 0 1 0-17l-8-25 14-8 10 34a11 11 0 0 1-16 16Z"/><path fill="#3f3d56" d="M448 156h8s12 8 12 19 18 145 18 145l-19 3-17-93-13-25ZM373 165h-22s-7 7-10 23-7 78-7 78l2 57h17l2-74 12-48Z"/></svg>