<svg xmlns="http://www.w3.org/2000/svg" data-name="Layer 1" viewBox="0 0 892.6 540.8"><circle cx="73.9" cy="71.3" r="46" fill="#ff6584"/><ellipse cx="444" cy="522.8" fill="#e6e6e6" rx="444" ry="18"/><circle cx="113" cy="184.2" r="113" fill="#afb4bd"/><path fill="#3f3d56" d="M124 525h-23l10-358 13 358z"/><path fill="#3f3d56" d="m113 235 25-34-25 42-3-4 3-4zM111 270l-25-35 25 43 3-5-3-3zM828 525h-24l11-357 13 357z"/><path fill="#3f3d56" d="m817 235 25-34-25 43-3-5 3-4zM814 270l-25-34 26 43 2-5-3-4z"/><circle cx="459.1" cy="314.4" r="210.5" fill="#3f3d56"/><circle cx="459.1" cy="314.4" r="193.1" fill="#fff"/><circle cx="458.4" cy="315.1" r="25.8" fill="#3f3d56"/><path fill="#3f3d56" d="M453 131h11v21h-11zM453 478h11v21h-11zM295 310v11h-21v-11zM643 309v11h-21v-11zM451 326l9-22 120 67-129-45zM432 53h54v63h-54z"/><ellipse cx="459.1" cy="53" fill="#3f3d56" rx="62.7" ry="17.4"/><path fill="#ffb8b8" d="m577 352-4 5s-16 18-17 9 12-15 12-15l7-4ZM676 368l3 5s10 23 1 20-8-18-8-18l-1-8Z"/><circle cx="660" cy="254" r="21.2" fill="#2f2e41"/><path fill="#ffb8b8" d="m658 428 3 18v6h16v-7s1-12-2-16-17-1-17-1ZM629 428l3 18v6h16v-7s1-12-2-16-17-1-17-1Z"/><path fill="#afb4bd" d="M640 283s-6 3-2 10 29 84 29 84l14-4-12-48-7-31Z"/><circle cx="657.7" cy="260" r="16" fill="#ffb8b8"/><path fill="#ffb8b8" d="m665 262-2 33-15-10s5-20 4-21Z"/><path fill="#afb4bd" d="m665 292-16-11s-7-3-9 0-13 55-7 65c0 0 30 6 36 3l3-18s3-11-2-18Z"/><path fill="#afb4bd" d="M644 282s-5-4-10 3-64 62-64 62l10 11 38-32 25-20Z"/><path fill="#2f2e41" d="M670 349s-35-7-38-2l-1 7s-8 15-4 39 2 38 2 38 19-2 33 0 16 0 16 0ZM678 449l-20 1 7 52s-6 23 1 24a71 71 0 0 0 13 1s6 7 13 6a39 39 0 0 0 13-4s2-4-3-6-18-5-21-20Z"/><path fill="#2f2e41" d="m650 449-21 1 7 52s-5 23 1 24a71 71 0 0 0 13 1s7 7 14 6a39 39 0 0 0 13-4s1-4-4-6-18-5-21-20Z"/><circle cx="667.5" cy="231.7" r="8.8" fill="#2f2e41"/><path fill="#2f2e41" d="M679 227a9 9 0 0 0-8-9 9 9 0 0 1 1 0 9 9 0 0 1 0 18 9 9 0 0 1-1 0 9 9 0 0 0 8-9Z"/><ellipse cx="657.6" cy="249.5" fill="#2f2e41" rx="14.6" ry="8.8"/><path fill="#e6e6e6" d="M888 42a45 45 0 0 0-88-9h-1a45 45 0 0 0-43 32 32 32 0 0 0-37 9h139a30 30 0 0 0 30-31v-1Z"/><circle cx="771.6" cy="124.2" r="12" fill="#e6e6e6"/><circle cx="807.8" cy="95.9" r="10" fill="#e6e6e6"/><circle cx="856.6" cy="150.2" r="12" fill="#e6e6e6"/><circle cx="765.6" cy="205.2" r="12" fill="#e6e6e6"/><circle cx="856.6" cy="274.2" r="12" fill="#e6e6e6"/><path fill="#e6e6e6" d="M838 506v-1a12 12 0 0 0-17-11 12 12 0 0 0-21 10 12 12 0 1 0 7 22 12 12 0 0 0 21 1 12 12 0 1 0 10-21Z"/><circle cx="867.6" cy="226.2" r="5" fill="#e6e6e6"/><circle cx="835.6" cy="106.2" r="5" fill="#e6e6e6"/><circle cx="818.6" cy="230.2" r="5" fill="#e6e6e6"/><circle cx="822.6" cy="225.2" r="5" fill="#e6e6e6"/><circle cx="825.6" cy="220.2" r="5" fill="#e6e6e6"/><circle cx="813.6" cy="262.2" r="5" fill="#e6e6e6"/><circle cx="887.6" cy="318.2" r="5" fill="#e6e6e6"/><circle cx="780.6" cy="321.2" r="5" fill="#e6e6e6"/><circle cx="786.6" cy="167.2" r="5" fill="#e6e6e6"/><circle cx="809.6" cy="257.2" r="5" fill="#e6e6e6"/><circle cx="804.6" cy="249.2" r="5" fill="#e6e6e6"/></svg>