<svg xmlns="http://www.w3.org/2000/svg" data-name="Layer 1" viewBox="0 0 940.7 434">
	<path fill="#f0f0f0"
		d="M199 410c-22-15-38-41-35-68a124 124 0 0 0 76 37c12 1 24 2 32 10 5 5 7 12 7 19l-3 21v1c-26-1-54-6-77-20Z" />
	<path fill="#fff"
		d="M165 342a106 106 0 0 0 42 50 46 46 0 0 0 13 6 26 26 0 0 0 13-1l13-3a16 16 0 0 1 12 5c4 4 6 9 8 14 3 6 5 12 10 16l-1 1c-8-7-9-19-16-28-3-4-7-7-12-7l-13 3a28 28 0 0 1-13 1 42 42 0 0 1-13-5 103 103 0 0 1-25-21 108 108 0 0 1-20-31h2Z" />
	<path fill="#fff"
		d="M200 388a16 16 0 0 1-20 4l1-1a15 15 0 0 0 18-3h1ZM231 398a31 31 0 0 0-10-20l1-1a32 32 0 0 1 10 21h-1ZM176 364a9 9 0 0 0 3-8h2a10 10 0 0 1-4 9 1 1 0 0 1-1 0 1 1 0 0 1 0-1Z" />
	<path fill="#f0f0f0"
		d="M241 293v2a118 118 0 0 0 4 18v2a125 125 0 0 0 22 41 121 121 0 0 0 12 13c7 6 14 12 18 19a21 21 0 0 1 1 2l-19 40h-1v1h-1l-1-1-4-4c-11-9-21-19-29-30l-1-1a116 116 0 0 1-10-17 102 102 0 0 1-4-9 85 85 0 0 1-5-26 68 68 0 0 1 18-50Z" />
	<path fill="#fff"
		d="M241 294a106 106 0 0 0 4 65 46 46 0 0 0 7 12 26 26 0 0 0 11 8l12 5a16 16 0 0 1 7 11l-2 17c-2 6-4 12-2 18h-2c-2-10 5-20 5-31 0-5-2-10-6-13-3-3-8-4-12-6a28 28 0 0 1-11-7 42 42 0 0 1-8-12 103 103 0 0 1-7-31 108 108 0 0 1 3-37l1 1Z" />
	<path fill="#fff"
		d="M242 352a16 16 0 0 1-18-9c-1-1 0-1 1-1a15 15 0 0 0 17 9v1ZM261 378a31 31 0 0 0 4-21l1-1a32 32 0 0 1-4 23c-1 1-2 0-1-1ZM237 318a9 9 0 0 0 8-4h1a10 10 0 0 1-8 5 1 1 0 0 1-1 0 1 1 0 0 1 0-1Z" />
	<path fill="#f0f0f0"
		d="M887 410c22-15 39-41 35-68a124 124 0 0 1-76 37c-11 1-24 2-32 10-5 5-7 12-7 19l3 21v1c27-1 54-6 77-20Z" />
	<path fill="#fff"
		d="M922 342a106 106 0 0 1-42 50 46 46 0 0 1-13 6 26 26 0 0 1-14-1c-4-1-8-3-13-3a16 16 0 0 0-12 5c-4 4-6 9-8 14-2 6-5 12-9 16v1c9-7 9-19 16-28 3-4 7-7 12-7s9 2 13 3a28 28 0 0 0 14 1 42 42 0 0 0 13-5 103 103 0 0 0 25-21 108 108 0 0 0 19-31h-1Z" />
	<path fill="#fff"
		d="M886 388a16 16 0 0 0 20 4v-1a15 15 0 0 1-19-3h-1ZM855 398a31 31 0 0 1 10-20l-1-1a32 32 0 0 0-10 21h1ZM910 364a9 9 0 0 1-3-8h-1a10 10 0 0 0 3 9 1 1 0 0 0 1 0 1 1 0 0 0 0-1Z" />
	<path fill="#f0f0f0"
		d="m846 293-1 2a118 118 0 0 1-4 18v2a125 125 0 0 1-22 41 121 121 0 0 1-12 13c-6 6-13 12-17 19a21 21 0 0 0-1 2l19 40 1 1 1-1h1l4-4c10-9 20-19 29-30v-1a116 116 0 0 0 10-17 102 102 0 0 0 4-9 85 85 0 0 0 5-26 68 68 0 0 0-17-50Z" />
	<path fill="#fff"
		d="M845 294a106 106 0 0 1-3 65 46 46 0 0 1-7 12 26 26 0 0 1-12 8l-12 5a16 16 0 0 0-6 11c-1 6 0 12 2 17 1 6 3 12 2 18h1c2-10-4-20-4-31 0-5 1-10 5-13l12-6a28 28 0 0 0 12-7 42 42 0 0 0 7-12 103 103 0 0 0 7-31 108 108 0 0 0-3-37l-1 1Z" />
	<path fill="#fff"
		d="M844 352a16 16 0 0 0 19-9l-1-1a15 15 0 0 1-17 9l-1 1ZM825 378a31 31 0 0 1-4-21l-1-1a32 32 0 0 0 5 23v-1ZM849 318a9 9 0 0 1-7-4h-1a10 10 0 0 0 8 5 1 1 0 0 0 0-1Z" />
	<path fill="#ffb6b6" d="M244 280a7 7 0 0 1-2-10l-12-21 13 1 9 20a7 7 0 0 1-8 10ZM152 424h8l4-32h-12v32z" />
	<path fill="#2f2e41" d="M150 421h16a10 10 0 0 1 10 10v1h-26Z" />
	<path fill="#ffb6b6" d="M208 424h9l4-32h-13v32z" />
	<path fill="#2f2e41"
		d="M206 421h17a10 10 0 0 1 10 10v1h-27ZM230 250s2 32-2 49-6 115-6 115h-15l-13-135-30 136-14-1 8-160Z" />
	<path fill="#3f3d56" d="m164 140 11-8 20 4 5 13 9 4a20 20 0 0 1 11 15l13 89-75-3-10-104a8 8 0 0 1 8-9Z" />
	<path fill="#3f3d56" d="m214 160 7 9 30 93-14 5-23-43v-64z" />
	<circle cx="188.4" cy="110.9" r="16.8" fill="#ffb9b9" />
	<path d="m152 180 27 38 31 20-58-58z" opacity=".1" />
	<path fill="#2f2e41"
		d="M180 123c-2-2-3-5-2-7s3-5 5-4c1-3 5-5 9-4l10 2c3 0 8 0 10-3h-5l5-5h-6c2-2 2-6 0-8l-7-4a40 40 0 0 0-17 0 21 21 0 0 0-7 3 14 14 0 0 0-5 5 17 17 0 0 0-2 8 22 22 0 0 0 10 19" />
	<path fill="#e4e4e4"
		d="M805 432H284a20 20 0 0 1-21-20V20a20 20 0 0 1 21-20h521a20 20 0 0 1 20 20v392a20 20 0 0 1-20 20Z" />
	<path fill="#fff"
		d="M674 180h-81a15 15 0 0 1 0-30h81a15 15 0 0 1 0 30ZM603 221h-19a6 6 0 0 1 0-11h19a6 6 0 0 1 0 11ZM682 221h-19a6 6 0 0 1 0-11h19a6 6 0 0 1 0 11ZM642 221h-19a6 6 0 0 1 0-11h19a6 6 0 0 1 0 11ZM603 242h-19a6 6 0 0 1 0-11h19a6 6 0 0 1 0 11ZM682 242h-19a6 6 0 0 1 0-11h19a6 6 0 0 1 0 11ZM642 242h-19a6 6 0 0 1 0-11h19a6 6 0 0 1 0 11ZM603 263h-19a6 6 0 0 1 0-11h19a6 6 0 0 1 0 11ZM682 263h-19a6 6 0 0 1 0-11h19a6 6 0 0 1 0 11ZM642 263h-19a6 6 0 0 1 0-11h19a6 6 0 0 1 0 11ZM603 284h-19a6 6 0 0 1 0-11h19a6 6 0 1 1 0 11ZM682 284h-19a6 6 0 0 1 0-11h19a6 6 0 1 1 0 11ZM642 284h-19a6 6 0 0 1 0-11h19a6 6 0 1 1 0 11Z" />
	<circle cx="474.9" cy="210.7" r="51" fill="#cacaca" />
	<path fill="#fff" d="M475 273a15 15 0 0 1-15-15v-95a15 15 0 1 1 30 0v95a15 15 0 0 1-15 15Z" />
	<path fill="#e4e4e4"
		d="M608 173h-14a2 2 0 0 1 0-4h14a2 2 0 1 1 0 4ZM630 174h-14a2 2 0 0 1 0-4h14a2 2 0 1 1 0 4ZM652 174h-14a2 2 0 0 1 0-4h14a2 2 0 1 1 0 4ZM674 175h-14a2 2 0 0 1 0-4h14a2 2 0 1 1 0 4Z" />
	<path fill="#cacaca"
		d="M330 370a19 19 0 0 0 5 14h-8a19 19 0 0 1-18-19V64a19 19 0 0 1 18-18h12a19 19 0 0 0-9 16ZM939 434H1a1 1 0 0 1 0-2h938a1 1 0 0 1 0 2Z" />
	<path fill="#fff"
		d="m328 133-19-4a544 544 0 0 0-66-12 15 15 0 0 0-18 10l-11 41a15 15 0 0 0 10 19 530 530 0 0 1 48 7l15 3 6 2 16 4 19 6 2 1v-76l-2-1Z" />
	<path fill="#16a34a"
		d="m328 133-19-4a544 544 0 0 0-66-12 15 15 0 0 0-18 10l-11 41a15 15 0 0 0 10 19 530 530 0 0 1 48 7l15 3 6 2 16 4 19 6 2 1v-3h-2l-17-5-6-2-12-3-6-1v-1l-11-2-4-1c-16-3-32-6-47-7a13 13 0 0 1-9-16l11-41a13 13 0 0 1 15-9h1a542 542 0 0 1 65 11l20 6h2v-2l-2-1Z" />
	<path fill="#16a34a"
		d="M330 135v74l-2-1-18-5-17-5-6-1v-2a61 61 0 0 1-2-7 69 69 0 0 1 23-58h1l19 5h2ZM264 165l-28-3a8 8 0 1 0-2 15l28 3a8 8 0 0 0 2-15Zm4 8a6 6 0 0 1-6 5l-28-3a5 5 0 0 1 1-11l28 3a6 6 0 0 1 5 6Z" />
	<path fill="#fff"
		d="M330 152v35a16 16 0 0 1-2 1 20 20 0 0 1-22-3 16 16 0 0 1-2-2 20 20 0 0 1 24-32 21 21 0 0 1 2 1Z" />
	<path fill="#fff"
		d="m328 177-24 6-8 2-11 3-13 4a1688 1688 0 0 1-40 15 15 15 0 0 0-10 18l10 41a15 15 0 0 0 17 11h1a534 534 0 0 1 59-21l19-4 2-1v-74h-2Z" />
	<path fill="#16a34a"
		d="m328 177-24 6-8 2-11 3-13 4a1688 1688 0 0 1-40 15 15 15 0 0 0-10 18l10 41a15 15 0 0 0 17 11h1a534 534 0 0 1 59-21l19-4 2-1v-2l-2 1h-2l-17 4v1a533 533 0 0 0-60 20 13 13 0 0 1-15-9l-10-42a13 13 0 0 1 9-15l39-15 4-1 10-3 10-3 10-2 22-5 2-1v-2h-2Z" />
	<path fill="#16a34a"
		d="M330 178v72l-2 1-19 4a69 69 0 0 1-16-56 36 36 0 0 1 0-2 69 69 0 0 1 3-10v-1l9-2 23-5 2-1ZM283 243a8 8 0 0 0-9-4l-26 11a8 8 0 0 0 5 14l26-11a8 8 0 0 0 4-10Zm-4 8-26 11a6 6 0 0 1-5-10l26-11a5 5 0 1 1 5 10Z" />
	<path fill="#fff" d="M330 196v40a20 20 0 0 1-2 0 20 20 0 0 1-19-33h1l1-1a20 20 0 0 1 17-6 17 17 0 0 1 2 0Z" />
	<path fill="#2f2e41"
		d="M328 128v100l2-1v-98l-2-1Zm0 0v100l2-1v-98l-2-1Zm0 0v100l2-1v-98l-2-1Zm0 8v115l2-1V136h-2Zm0 0v115l2-1V136h-2Zm0 0v115l2-1V136h-2Zm0 0v115l2-1V136h-2Zm0 0v116l2-1V136h-2Zm436-95H349a21 21 0 0 0-21 21v308a21 21 0 0 0 21 21h415a21 21 0 0 0 21-21V62a21 21 0 0 0-21-21Zm19 329a19 19 0 0 1-19 19H349a19 19 0 0 1-19-19V62a19 19 0 0 1 19-19h415a19 19 0 0 1 19 19ZM328 136v114l2-1V136h-2Zm0 0v115l2-1V136h-2Zm0 0v115l2-1V136h-2Zm0 0v115l2-1V136h-2Zm0-8v100l2-1v-98l-2-1Zm0 0v100l2-1v-98l-2-1Z" />
	<path fill="#ffb6b6" d="M239 234a7 7 0 0 0-10-3l-19-15-1 13 18 12a7 7 0 0 0 12-7Z" />
	<path fill="#3f3d56" d="m162 145-7-3s-10 3-5 16l30 56 36 21 12-10-37-29Z" />
</svg>